# xmcd
#
# Track frame offsets: 
#        150
#        2165
#        28356
#        50325
#        76380
#        98817
#        126660
#        150367
#        176117
#        196949
#        216966
#
# Disc length: 3248 seconds
#
# Revision: 0
# Processed by: cddbd v1.5.2PL0 Copyright (c) Steve Scherf et al.
# Submitted via: ExactAudioCopy v0.95b3
#
DISCID=940cae0b
DTITLE=Commando - Sudden Invasion
DYEAR=2008
DGENRE=Thrash Metal
TTITLE0=The War Has Begun! (Intro)
TTITLE1=Kill The Posers
TTITLE2=Living Hell
TTITLE3=Bomberfucker
TTITLE4=Mental Disorder
TTITLE5=Fight Till Death
TTITLE6=Sonderkomando
TTITLE7=Eternal War Enemy
TTITLE8=Police Brutality
TTITLE9=Pleasure For Destruction
TTITLE10=Death Termination
EXTD=
EXTT0=
EXTT1=
EXTT2=
EXTT3=
EXTT4=
EXTT5=
EXTT6=
EXTT7=
EXTT8=
EXTT9=
EXTT10=
PLAYORDER=
